<?xml version="1.0" standalone="no"?>
<!DOCTYPE svg PUBLIC "-//W3C//DTD SVG 20010904//EN"
 "http://www.w3.org/TR/2001/REC-SVG-20010904/DTD/svg10.dtd">
<svg version="1.0" xmlns="http://www.w3.org/2000/svg"
 width="300.000000pt" height="200.000000pt" viewBox="0 0 500.000000 500.000000"
 preserveAspectRatio="xMidYMid meet" style="border-radius:50%">

<g transform="translate(0.000000,500.000000) scale(0.100000,-0.100000)"
fill="#000000" stroke="none">
<path d="M0 4705 l0 -295 810 0 810 0 0 -355 0 -354 -66 29 c-79 36 -199 72
-314 96 -72 15 -145 18 -485 18 l-400 1 -3 -607 -2 -608 -175 0 -175 0 0 -35
0 -35 175 0 175 0 0 -605 0 -605 323 0 c177 0 376 5 442 10 147 13 301 49 408
95 44 19 84 35 89 35 4 0 8 -157 8 -350 l0 -350 -810 0 -810 0 0 -395 0 -395
2500 0 2500 0 0 385 0 385 -735 0 -735 0 0 290 0 290 95 0 95 0 2 581 3 581
415 -579 416 -578 163 -3 c139 -2 163 0 158 12 -5 12 -225 315 -422 581 -29
39 -140 190 -248 337 l-196 268 494 0 495 0 0 40 0 40 -503 2 -504 3 444 602
c243 332 443 605 443 608 0 3 -73 4 -162 3 l-162 -3 -415 -580 -416 -581 -5
581 -5 580 -97 5 -98 5 3 275 2 275 738 3 737 2 0 295 0 295 -2500 0 -2500 0
0 -295z m3460 -1670 l0 -885 -626 0 -626 0 7 23 c86 275 95 500 30 752 -30
116 -131 330 -197 416 -87 115 -246 261 -328 304 l-30 16 0 129 0 130 885 0
885 0 0 -885z m-2180 528 c110 -31 176 -57 260 -105 l75 -43 3 -392 2 -393
-505 0 -505 0 0 481 0 481 298 -4 c262 -4 306 -7 372 -25z m569 -383 c125
-168 183 -353 183 -580 1 -159 -29 -303 -84 -412 l-18 -38 -120 0 -120 0 0
602 0 602 56 -54 c30 -30 77 -84 103 -120z m-229 -1003 l0 -383 -54 -33 c-90
-54 -209 -101 -313 -122 -78 -16 -152 -21 -370 -26 l-273 -6 0 477 0 476 505
0 505 0 0 -383z m253 -128 c-10 -17 -55 -70 -100 -118 l-82 -86 -1 118 0 117
101 0 100 0 -18 -31z m1587 -859 l0 -890 -885 0 -885 0 0 619 0 619 83 58
c146 101 305 285 378 437 l23 47 643 0 643 0 0 -890z"/>
</g>
</svg>
